<svg width="27" height="26" viewBox="0 0 27 26" fill="none" xmlns="http://www.w3.org/2000/svg">
<path d="M14.762 5.41993L13.1739 5.41668C9.5512 5.40801 6.40629 8.35143 6.38137 11.9167V16.0225C6.38137 16.8783 6.27304 17.7136 5.80612 18.4253L5.4952 18.8998C5.02179 19.6192 5.53095 20.5833 6.38137 20.5833H21.5805C22.431 20.5833 22.939 19.6192 22.4667 18.8998L22.1558 18.4253C21.69 17.7136 21.5805 16.8773 21.5805 16.0214V11.9178C21.5372 8.35143 18.3847 5.42859 14.762 5.41993Z" fill="#BEBEC2"/>
<path d="M17.231 20.5833C17.231 21.4453 16.8885 22.2719 16.2791 22.8814C15.6696 23.4909 14.8429 23.8333 13.981 23.8333C13.119 23.8333 12.2924 23.4909 11.6829 22.8814C11.0734 22.2719 10.731 21.4453 10.731 20.5833" fill="#6F6E73"/>
<path d="M13.981 2.16666C14.5556 2.16666 15.1067 2.39493 15.513 2.80126C15.9193 3.20759 16.1476 3.75869 16.1476 4.33332V5.41666H11.8143V4.33332C11.8143 3.75869 12.0426 3.20759 12.4489 2.80126C12.8552 2.39493 13.4063 2.16666 13.981 2.16666Z" fill="#6F6E73"/>
<!--<circle cx="20.481" cy="9.75" r="3.75" fill="#DD736D" stroke="#F5F5F5"/>-->
</svg>
