<svg width="21" height="20" viewBox="0 0 21 20" fill="none" xmlns="http://www.w3.org/2000/svg">
<g clip-path="url(#clip0_4380_926)">
<path d="M19.3143 16.6667V10.145C19.3144 9.69128 19.2218 9.24232 19.0422 8.82563C18.8627 8.40893 18.6 8.03328 18.2701 7.72168L12.126 1.91501C11.8165 1.62245 11.4068 1.45944 10.981 1.45944C10.5551 1.45944 10.1454 1.62245 9.83598 1.91501L3.69181 7.72168C3.362 8.03328 3.09927 8.40893 2.91973 8.82563C2.74018 9.24232 2.6476 9.69128 2.64764 10.145V16.6667C2.64764 17.1087 2.82324 17.5326 3.1358 17.8452C3.44836 18.1578 3.87228 18.3333 4.31431 18.3333H17.6476C18.0897 18.3333 18.5136 18.1578 18.8262 17.8452C19.1387 17.5326 19.3143 17.1087 19.3143 16.6667Z" stroke="#6F6E73" stroke-width="2" stroke-linecap="round" stroke-linejoin="round"/>
</g>
<defs>
<clipPath id="clip0_4380_926">
<rect width="20" height="20" fill="white" transform="translate(0.980957)"/>
</clipPath>
</defs>
</svg>
